<?xml version="1.0" encoding="UTF-8"?>
<svg version="1.1" xmlns="http://www.w3.org/2000/svg" width="500" height="500">
<path d="M0 0 C2.52010121 0.01074045 5.03949005 0.00000769 7.55957031 -0.01269531 C23.10295779 -0.02787311 38.52515344 1.02948827 53.64550781 4.82324219 C54.68336426 5.07936279 55.7212207 5.3354834 56.79052734 5.59936523 C87.44879204 13.4703339 114.22178004 26.97871373 139.70800781 45.51074219 C140.47371094 46.06463623 141.23941406 46.61853027 142.02832031 47.18920898 C146.63928384 50.61147179 150.7288816 54.28988585 154.70800781 58.43066406 C156.50267924 60.24274071 158.37256705 61.88125041 160.33300781 63.51074219 C175.12226231 76.3030132 186.37996017 92.70017381 196.52050781 109.26074219 C196.9486377 109.9576416 197.37676758 110.65454102 197.81787109 111.37255859 C227.85601044 160.9661161 235.62390253 223.70985319 221.97753906 279.75292969 C218.56341063 293.00613703 214.11250256 305.77457689 208.52050781 318.26074219 C208.16682129 319.05722168 207.81313477 319.85370117 207.44873047 320.67431641 C198.47722814 340.53150798 186.29542986 359.23056911 171.52050781 375.26074219 C170.42636509 376.47392978 169.33263529 377.68748987 168.23925781 378.90136719 C162.63862355 385.07228002 157.01126629 391.01385729 150.52050781 396.26074219 C149.48108768 397.13531732 148.44206302 398.01036258 147.40332031 398.88574219 C132.74103534 411.08505519 116.85422851 421.30647056 99.52050781 429.26074219 C98.90884766 429.55110352 98.2971875 429.84146484 97.66699219 430.140625 C67.59421109 444.41487538 36.0306794 450.71733733 2.89550781 450.57324219 C2.02098969 450.57141937 1.14647156 450.56959656 0.24545288 450.56771851 C-13.51457808 450.51956757 -26.94492519 449.9350168 -40.47949219 447.26074219 C-41.34413086 447.09445312 -42.20876953 446.92816406 -43.09960938 446.75683594 C-83.34441032 438.7582373 -120.5577048 419.1945403 -150.47949219 391.26074219 C-152.16649436 389.78100777 -153.85400189 388.30184931 -155.54199219 386.82324219 C-187.81952792 357.66285165 -209.12355747 315.30924139 -218.35449219 273.26074219 C-218.54543457 272.39118896 -218.73637695 271.52163574 -218.93310547 270.62573242 C-221.99991901 255.7351432 -222.88996927 241.10552395 -222.85449219 225.94824219 C-222.85361603 225.02898956 -222.85273987 224.10973694 -222.85183716 223.16262817 C-222.73573227 186.06972925 -214.00444594 150.9899158 -196.47949219 118.26074219 C-196.16399414 117.66841797 -195.84849609 117.07609375 -195.5234375 116.46582031 C-187.49101529 101.53300638 -177.80234337 87.86240074 -166.47949219 75.26074219 C-165.94501465 74.66455078 -165.41053711 74.06835938 -164.85986328 73.45410156 C-158.73192253 66.65516642 -152.5948213 60.04454772 -145.47949219 54.26074219 C-144.66351563 53.56851563 -143.84753906 52.87628906 -143.00683594 52.16308594 C-127.6063862 39.2444353 -110.62771245 28.82444806 -92.47949219 20.26074219 C-91.39539063 19.74769531 -90.31128906 19.23464844 -89.19433594 18.70605469 C-60.5715497 5.83797339 -31.26297419 -0.15758769 0 0 Z " fill="#29378D" transform="translate(247.4794921875,24.7392578125)"/>
<path d="M0 0 C8.62412633 0.68775824 16.59065812 2.87765809 24.89428711 5.22875977 C30.03933552 6.67805389 35.11515759 8.08572468 40.3828125 9.01171875 C51.99873948 11.18013505 51.99873948 11.18013505 55.640625 16.0234375 C57.7080014 19.3565271 59.28221118 22.88474608 60.84814453 26.47460938 C63.05182142 31.30607053 65.69293137 35.91154826 68.25 40.5625 C69.37040584 42.63638706 70.49019213 44.71060895 71.609375 46.78515625 C74.83707314 52.73008707 78.15556801 58.62015846 81.5 64.5 C83.67066017 68.33108548 85.83656948 72.16482771 88 76 C88.61069336 77.08071777 89.22138672 78.16143555 89.85058594 79.27490234 C91.70562575 82.57174001 93.54245015 85.87811881 95.375 89.1875 C95.95314453 90.20972656 96.53128906 91.23195313 97.12695312 92.28515625 C97.64966797 93.23648438 98.17238281 94.1878125 98.7109375 95.16796875 C99.17806152 96.00610107 99.64518555 96.8442334 100.12646484 97.70776367 C101.14123106 100.37060325 101.12800678 101.40901909 100 104 C97.98141064 105.96243534 95.98831723 107.72968651 93.8125 109.5 C92.52714097 110.57267372 91.24199041 111.6455973 89.95703125 112.71875 C89.29783691 113.26402344 88.63864258 113.80929688 87.95947266 114.37109375 C84.94269267 116.87893777 81.97269893 119.44022279 79 122 C77.83745771 122.99634832 76.67469635 123.99244108 75.51171875 124.98828125 C73.13640792 127.02397769 70.7644049 129.06344576 68.39453125 131.10546875 C63.08355709 135.67710453 57.76319597 140.21953692 52.3125 144.625 C47.55747588 148.48364255 43.03193238 152.55342467 38.51953125 156.69140625 C29.45177665 165 29.45177665 165 27 165 C26.86600296 164.17096161 26.73200592 163.34192322 26.59394836 162.48776245 C24.83633423 151.61637645 23.07545099 140.7455218 21.3125 129.875 C21.16907669 128.99055836 21.02565338 128.10611671 20.87788391 127.19487381 C15.82516967 96.04264903 10.68167002 64.90621492 5.46776676 33.78057575 C4.93197255 30.58172966 4.39665914 27.38280316 3.86131477 24.18388176 C3.49602251 22.00312805 3.12971204 19.82254722 2.76329041 17.64198303 C2.5423522 16.32309575 2.32144863 15.00420266 2.10058594 13.68530273 C1.91107361 12.55648178 1.72156128 11.42766083 1.52630615 10.26463318 C0.9755562 6.84837716 0.4794473 3.42692844 0 0 Z " fill="#FDFDFD" transform="translate(150,90)"/>
<path d="M0 0 C0 3.56228608 -0.93282296 5.23288011 -2.52770996 8.40945435 C-3.08831116 9.53333557 -3.64891235 10.6572168 -4.22650146 11.81515503 C-4.85597218 13.0618826 -5.48555357 14.3085543 -6.11523438 15.55517578 C-6.77271753 16.86765902 -7.42966665 18.18040989 -8.08612061 19.4934082 C-9.50350087 22.32545893 -10.92467737 25.15556036 -12.34880066 27.98422623 C-14.6084335 32.47244329 -16.85974139 36.96480325 -19.10998535 41.45773315 C-22.67992831 48.58310701 -26.25562706 55.70557494 -29.83368158 62.82687843 C-36.2139146 75.52569327 -42.58474513 88.22922509 -48.95305109 100.93402469 C-51.18321358 105.38263834 -53.41597159 109.82993667 -55.65083742 114.27618921 C-57.38537851 117.72774906 -59.11809581 121.18022123 -60.84960938 124.63330078 C-61.17496264 125.28207506 -61.50031591 125.93084935 -61.83552837 126.59928346 C-65.93181248 134.77518528 -69.97019104 142.97309038 -73.7781601 151.28807259 C-75.03863443 154.03290316 -76.31758877 156.47638315 -78 159 C-79.91715431 159.36914349 -79.91715431 159.36914349 -82.30264282 159.36076355 C-83.65723854 159.36694954 -83.65723854 159.36694954 -85.03919983 159.3732605 C-86.0325383 159.36247467 -87.02587677 159.35168884 -88.04931641 159.34057617 C-89.09324051 159.34101425 -90.13716461 159.34145233 -91.21272278 159.34190369 C-94.67585722 159.33980756 -98.13851225 159.31643734 -101.6015625 159.29296875 C-103.9976678 159.28737574 -106.39377652 159.28310425 -108.78988647 159.28010559 C-115.10617492 159.26863368 -121.42225745 159.2391462 -127.73846436 159.20599365 C-134.17978123 159.17534335 -140.62113127 159.16161104 -147.0625 159.14648438 C-159.70842135 159.11427885 -172.35419974 159.06362821 -185 159 C-179.53082841 153.50913102 -179.53082841 153.50913102 -176.72265625 151.08984375 C-176.13411865 150.58122803 -175.54558105 150.0726123 -174.93920898 149.54858398 C-174.31989502 149.01692627 -173.70058105 148.48526855 -173.0625 147.9375 C-172.40644775 147.37168213 -171.75039551 146.80586426 -171.07446289 146.22290039 C-169.05164261 144.4795918 -167.02624102 142.73933085 -165 141 C-164.39381836 140.47921875 -163.78763672 139.9584375 -163.16308594 139.421875 C-160.27010343 136.93714403 -157.37462705 134.4553639 -154.4765625 131.9765625 C-152.11334439 129.95495017 -149.75436957 127.92853563 -147.3984375 125.8984375 C-142.08640779 121.32519076 -136.76463508 116.78162622 -131.3125 112.375 C-126.62692813 108.57440437 -122.18788367 104.5536202 -117.75 100.46875 C-114.18815771 97.27118704 -110.47434167 94.28611657 -106.75 91.28125 C-103.91900422 88.93281032 -101.20616402 86.49090098 -98.5 84 C-94.12829537 79.98025464 -89.62213114 76.20011805 -85.00390625 72.46875 C-81.51283821 69.59962776 -78.09621768 66.65355539 -74.6875 63.6875 C-74.05392578 63.13634521 -73.42035156 62.58519043 -72.76757812 62.01733398 C-71.48151545 60.89821841 -70.19554552 59.77899624 -68.90966797 58.65966797 C-61.76608759 52.45127377 -54.60354128 46.27176028 -47.25 40.3125 C-42.87348373 36.76137934 -38.6916854 33.04202602 -34.52734375 29.24609375 C-31.93037607 26.93812402 -29.26595987 24.74444137 -26.5625 22.5625 C-22.73544273 19.46851286 -19.05719127 16.2716945 -15.4375 12.9375 C-10.47942283 8.37235402 -5.32166338 4.13265833 0 0 Z " fill="#7AC5D4" transform="translate(369,97)"/>
<path d="M0 0 C13.62112554 -0.1157509 27.24213445 -0.20464316 40.86365128 -0.25906086 C47.18841143 -0.28517613 53.51283559 -0.32061049 59.83740234 -0.37719727 C65.93876201 -0.43144656 72.03979812 -0.46140598 78.14138031 -0.47438622 C80.47147467 -0.48363871 82.80155093 -0.50170635 85.13150787 -0.52865028 C88.3904728 -0.56484515 91.64809362 -0.56994917 94.90722656 -0.56762695 C95.874673 -0.58560333 96.84211945 -0.60357971 97.83888245 -0.62210083 C104.38811402 -0.57146445 104.38811402 -0.57146445 107.5292511 2.36216736 C108.2572718 3.66789452 108.2572718 3.66789452 109 5 C109.53616943 5.91507324 110.07233887 6.83014648 110.62475586 7.77294922 C111.14948486 8.77342285 111.67421387 9.77389648 112.21484375 10.8046875 C112.81151855 11.93293945 113.40819336 13.06119141 114.02294922 14.22363281 C114.33455994 14.81809204 114.64617065 15.41255127 114.96722412 16.02502441 C116.63392637 19.20284069 118.31848857 22.37114229 120.00390625 25.5390625 C120.34381592 26.17839722 120.68372559 26.81773193 121.03393555 27.47644043 C124.04712991 33.12572791 127.19058407 38.69554005 130.375 44.25 C135.99901513 54.08305152 141.31502205 64.06358255 146.59793091 74.0821228 C151.69945844 83.75095445 156.94770912 93.31355478 162.38085938 102.80126953 C167.74910634 112.21945503 172.7201323 121.83558973 177.66796875 131.47949219 C179.41262775 134.78078608 181.28854783 138.0006033 183.19726562 141.20947266 C183.46216797 141.80034668 183.72707031 142.3912207 184 143 C183.67 143.66 183.34 144.32 183 145 C175.86378322 139.41417854 168.7477605 133.806613 161.6875 128.125 C156.37447034 123.85334635 150.99291793 119.68368342 145.5625 115.5625 C139.18142891 110.71845934 132.9327224 105.73689184 126.73413086 100.66210938 C121.17740664 96.12062853 115.51437889 91.74062889 109.80908203 87.38671875 C99.03096389 79.12494938 88.35543666 70.72748645 77.68554688 62.32666016 C74.79191173 60.04913794 71.89580677 57.77475993 69 55.5 C67.83332204 54.5833477 66.66665536 53.66668105 65.5 52.75 C64.9225 52.29625 64.345 51.8425 63.75 51.375 C57.33333333 46.33333333 50.91666667 41.29166667 44.5 36.25 C43.92258057 35.79633057 43.34516113 35.34266113 42.75024414 34.87524414 C41.5826959 33.95784991 40.41521551 33.04036933 39.24780273 32.12280273 C36.3451721 29.84155755 33.44140726 27.56178786 30.53515625 25.28515625 C27.01864914 22.5294961 23.50790432 19.76660077 20 17 C19.34225586 16.48195801 18.68451172 15.96391602 18.00683594 15.43017578 C15.98081641 13.83208639 13.95868881 12.22919296 11.9375 10.625 C11.00852905 9.89325562 11.00852905 9.89325562 10.06079102 9.14672852 C9.47225342 8.67807373 8.88371582 8.20941895 8.27734375 7.7265625 C7.76421631 7.32002441 7.25108887 6.91348633 6.72241211 6.49462891 C4.36268161 4.44696482 2.20195266 2.21505609 0 0 Z " fill="#FCFCFD" transform="translate(185,264)"/>
<path d="M0 0 C1.8632764 7.47953505 3.41267159 14.96288771 4.6875 22.5625 C4.81874268 23.33577637 4.94998535 24.10905273 5.08520508 24.90576172 C5.64662115 28.33450402 6 31.51545456 6 35 C-13.56073288 39.31849044 -33.24593247 42.71085853 -53 46 C-54.14259277 46.19045898 -55.28518555 46.38091797 -56.46240234 46.57714844 C-57.29980957 46.71668945 -58.1372168 46.85623047 -59 47 C-54.94740626 42.78151061 -50.59210096 39.07128918 -46.0625 35.375 C-45.31105713 34.75890869 -44.55961426 34.14281738 -43.78540039 33.50805664 C-38.65917758 29.31850646 -33.4816759 25.2001 -28.26025391 21.13012695 C-22.27023891 16.45371173 -16.38413295 11.65139165 -10.49609375 6.84765625 C-9.89651855 6.36055176 -9.29694336 5.87344727 -8.67919922 5.37158203 C-7.16312059 4.13323807 -5.66076595 2.87813819 -4.16015625 1.62109375 C-2 0 -2 0 0 0 Z " fill="#79C3D3" transform="translate(144,92)"/>
</svg>
